<svg width="100" height="100" viewBox="0 0 100 100" fill="none" xmlns="http://www.w3.org/2000/svg">
<rect width="100" height="100" rx="18" fill="white"/>
<g clip-path="url(#clip0_134_198)">
<path d="M38.6669 84.0001C44.9229 84.0001 50.0004 78.9227 50.0004 72.6667V61.3333H38.6669C32.4108 61.3333 27.3334 66.4107 27.3334 72.6667C27.3334 78.9227 32.4108 84.0001 38.6669 84.0001Z" fill="#0ACF83"/>
<path d="M27.3334 49.9999C27.3334 43.7439 32.4108 38.6665 38.6669 38.6665H50.0004V61.3331H38.6669C32.4108 61.3334 27.3334 56.2559 27.3334 49.9999Z" fill="#A259FF"/>
<path d="M27.3334 27.3334C27.3334 21.0774 32.4108 16 38.6669 16H50.0004V38.6666H38.6669C32.4108 38.6666 27.3334 33.5894 27.3334 27.3334Z" fill="#F24E1E"/>
<path d="M49.9996 16H61.3331C67.5892 16 72.6667 21.0774 72.6667 27.3334C72.6667 33.5894 67.5892 38.6666 61.3331 38.6666H49.9996V16Z" fill="#FF7262"/>
<path d="M72.6667 49.9999C72.6667 56.2559 67.5892 61.3334 61.3331 61.3334C55.0771 61.3334 49.9996 56.2559 49.9996 49.9999C49.9996 43.7439 55.0771 38.6665 61.3331 38.6665C67.5892 38.6665 72.6667 43.7439 72.6667 49.9999Z" fill="#1ABCFE"/>
</g>
<defs>
<clipPath id="clip0_134_198">
<rect width="68" height="68" fill="white" transform="translate(16 16)"/>
</clipPath>
</defs>
</svg>
